<svg xmlns="http://www.w3.org/2000/svg" viewBox="0 0 152 32" width="152" height="32" role="img" aria-label="KYRIVO">
  <g transform="translate(4,4)" fill="none" stroke="#F8FAFC" stroke-width="5">
    <path d="M2.5 0 V24"/><path d="M16 0 L5 12 L16 24"/>
    <g transform="translate(27,0)"><path d="M2.5 0 L9 11.5 L15.5 0"/><path d="M9 11 V24"/></g>
    <g transform="translate(54,0)"><path d="M2.5 0 V24"/><path d="M2.5 2.5 H9.5 A5.75 5.75 0 0 1 9.5 14 H2.5"/><path d="M9.5 14 L16 24"/></g>
    <g transform="translate(81,0)"><path d="M2.5 0 V24"/></g>
    <g transform="translate(95,0)"><path d="M2.5 0 L9 24 L15.5 0"/></g>
    <g transform="translate(122,0)"><ellipse cx="11" cy="12" rx="8.5" ry="9.5"/></g>
  </g>
</svg>
